<svg width="16" height="16" viewBox="0 0 16 16" fill="none" xmlns="http://www.w3.org/2000/svg">
<path fill-rule="evenodd" clip-rule="evenodd" d="M9.41415 4.67678C9.19657 4.89282 9.19929 5.24043 9.42021 5.45319C9.64258 5.66734 9.99997 5.66601 10.2207 5.4502L12.8596 2.86973L10.2235 0.239656C10.0016 0.0226944 9.64188 0.0226944 9.42001 0.239656C9.19814 0.456618 9.19814 0.808383 9.42001 1.02534L10.751 2.32688L3.22023 2.29541C1.61247 2.29541 0.307678 3.57481 0.307678 5.14348V7.43785C0.307678 7.74365 0.561185 7.99154 0.873902 7.99154C1.18662 7.99154 1.44013 7.74365 1.44013 7.43785V5.14348C1.44013 4.18618 2.24126 3.40279 3.22023 3.40279H10.748L9.41415 4.67678ZM5.15873 13.2198L12.7797 13.2506C14.3914 13.2506 15.6923 11.9785 15.6923 10.4026V8.1082C15.6923 7.80241 15.4388 7.55452 15.1261 7.55452C14.8134 7.55452 14.5598 7.80241 14.5598 8.1082V10.4026C14.5598 11.3599 13.7587 12.1433 12.7797 12.1433H5.16103L6.49574 10.8685C6.71405 10.6539 6.7136 10.3071 6.49474 10.0931C6.27601 9.87917 5.92137 9.87917 5.70263 10.0931L3.06088 12.6763L5.70198 15.3016C5.92123 15.5152 6.27591 15.5148 6.49474 15.3008C6.71348 15.087 6.71348 14.7402 6.49474 14.5263L5.15873 13.2198Z" fill="#62687E"/>
</svg>
