<svg width="20" height="20" viewBox="0 0 20 20" fill="none" xmlns="http://www.w3.org/2000/svg">
<path fill-rule="evenodd" clip-rule="evenodd" d="M11.9826 5.85356C11.7064 6.12125 11.7099 6.55198 11.9903 6.81562C12.2726 7.08097 12.7262 7.07932 13.0064 6.81192L16.3561 3.61443L13.0099 0.355476C12.7283 0.0866368 12.2717 0.0866368 11.99 0.355476C11.7084 0.624316 11.7084 1.06019 11.99 1.32903L13.6796 2.94178L4.12018 2.90279C2.07934 2.90279 0.423065 4.4881 0.423065 6.43185V9.27484C0.423065 9.65375 0.744861 9.96092 1.14182 9.96092C1.53877 9.96092 1.86057 9.65375 1.86057 9.27484V6.43185C1.86057 5.24566 2.8775 4.27495 4.12018 4.27495H13.6758L11.9826 5.85356ZM6.58087 16.4394L16.2548 16.4775C18.3006 16.4775 19.9519 14.9013 19.9519 12.9485V10.1055C19.9519 9.72656 19.6301 9.4194 19.2332 9.4194C18.8362 9.4194 18.5144 9.72656 18.5144 10.1055V12.9485C18.5144 14.1347 17.4975 15.1054 16.2548 15.1054H6.58378L8.27803 13.5258C8.55515 13.2599 8.55459 12.8301 8.27677 12.5649C7.99911 12.2999 7.54894 12.2999 7.27128 12.5649L3.91792 15.7659L7.27046 19.0189C7.54876 19.2835 7.999 19.2831 8.27677 19.018C8.55443 18.7529 8.55443 18.3232 8.27677 18.0582L6.58087 16.4394Z" fill="#1F2033"/>
</svg>
