<svg width="20" height="18" viewBox="0 0 20 18" fill="none" xmlns="http://www.w3.org/2000/svg">
<path fill-rule="evenodd" clip-rule="evenodd" d="M13.1621 8.59473C16.9683 9.73445 19.5168 12.9643 19.5168 16.6661C19.5168 16.9266 19.2877 17.1374 19.0052 17.1374C18.7228 17.1374 18.4939 16.9264 18.4939 16.666C18.4939 13.4112 16.2782 10.5672 12.9567 9.52533C12.1519 9.96998 11.2356 10.2036 10.2894 10.2036C7.42284 10.2036 5.09094 8.05353 5.09094 5.41089C5.09094 2.76826 7.42304 0.617981 10.2896 0.617981C13.1562 0.617981 15.4881 2.76807 15.4881 5.41089C15.4881 6.26418 15.2414 7.10238 14.7748 7.83498C14.6321 8.05975 14.3183 8.13424 14.0751 8.0028C13.8313 7.87099 13.7501 7.58191 13.8931 7.35751C14.2674 6.76974 14.4654 6.09673 14.4654 5.41089C14.4654 3.28796 12.5923 1.56084 10.2896 1.56084C7.98715 1.56084 6.11382 3.28796 6.11382 5.41089C6.11382 7.53364 7.98715 9.26076 10.2896 9.26076C11.1229 9.26076 11.9273 9.03542 12.6156 8.60868C12.7806 8.50667 12.9933 8.50233 13.1621 8.59473ZM1.08533 16.6465C1.08533 16.9069 1.3142 17.118 1.59666 17.118C1.87913 17.118 2.108 16.9069 2.108 16.6465C2.108 14.0194 3.55529 11.6222 5.97903 10.2342C6.21895 10.0969 6.29278 9.80611 6.14368 9.58492C5.99498 9.36391 5.67959 9.29603 5.43967 9.43312C2.71302 10.9943 1.08533 13.6911 1.08533 16.6465Z" fill="#62687E"/>
<path d="M13.1621 8.59473L13.0007 8.88946L13.0318 8.90647L13.0657 8.91663L13.1621 8.59473ZM12.9567 9.52533L13.0573 9.20471L12.9201 9.16167L12.7942 9.23121L12.9567 9.52533ZM14.7748 7.83498L14.4914 7.65448L14.4912 7.65482L14.7748 7.83498ZM14.0751 8.0028L13.9153 8.29839L13.9154 8.29841L14.0751 8.0028ZM13.8931 7.35751L14.1765 7.53807L14.1765 7.538L13.8931 7.35751ZM12.6156 8.60868L12.4389 8.32285L12.4385 8.3231L12.6156 8.60868ZM5.97903 10.2342L5.81215 9.94251L5.81203 9.94258L5.97903 10.2342ZM6.14368 9.58492L5.86489 9.77249L5.86505 9.77274L6.14368 9.58492ZM5.43967 9.43312L5.27296 9.14136L5.27271 9.14151L5.43967 9.43312ZM19.8528 16.6661C19.8528 12.8009 17.192 9.45068 13.2585 8.27283L13.0657 8.91663C16.7446 10.0182 19.1808 13.1277 19.1808 16.6661H19.8528ZM19.0052 17.4734C19.4467 17.4734 19.8528 17.1377 19.8528 16.6661H19.1808C19.1808 16.7155 19.1287 16.8014 19.0052 16.8014V17.4734ZM18.1579 16.666C18.1579 17.1371 18.5634 17.4734 19.0052 17.4734V16.8014C18.8821 16.8014 18.8299 16.7156 18.8299 16.666H18.1579ZM12.8562 9.84595C16.052 10.8484 18.1579 13.5727 18.1579 16.666H18.8299C18.8299 13.2497 16.5044 10.286 13.0573 9.20471L12.8562 9.84595ZM10.2894 10.5396C11.2909 10.5396 12.2633 10.2923 13.1192 9.81945L12.7942 9.23121C12.0404 9.64766 11.1802 9.8676 10.2894 9.8676V10.5396ZM4.75492 5.41089C4.75492 8.26429 7.26348 10.5396 10.2894 10.5396V9.8676C7.5822 9.8676 5.42696 7.84277 5.42696 5.41089H4.75492ZM10.2896 0.281959C7.26369 0.281959 4.75492 2.5575 4.75492 5.41089H5.42696C5.42696 2.97902 7.5824 0.954002 10.2896 0.954002V0.281959ZM15.8241 5.41089C15.8241 2.55732 13.3155 0.281959 10.2896 0.281959V0.954002C12.9968 0.954002 15.152 2.97882 15.152 5.41089H15.8241ZM15.0583 8.01547C15.5585 7.22998 15.8241 6.32934 15.8241 5.41089H15.152C15.152 6.19901 14.9243 6.97478 14.4914 7.65448L15.0583 8.01547ZM13.9154 8.29841C14.3028 8.50783 14.8146 8.39907 15.0585 8.01513L14.4912 7.65482C14.4495 7.72044 14.3338 7.76065 14.2349 7.70719L13.9154 8.29841ZM13.6097 7.17696C13.3547 7.57721 13.512 8.08034 13.9153 8.29839L14.2349 7.70722C14.1912 7.68356 14.1702 7.65113 14.1625 7.62376C14.155 7.59706 14.1576 7.56778 14.1765 7.53807L13.6097 7.17696ZM14.1294 5.41089C14.1294 6.03164 13.9502 6.64221 13.6097 7.17702L14.1765 7.538C14.5846 6.89727 14.8014 6.16181 14.8014 5.41089H14.1294ZM10.2896 1.89686C12.4329 1.89686 14.1294 3.49871 14.1294 5.41089H14.8014C14.8014 3.07721 12.7516 1.22482 10.2896 1.22482V1.89686ZM6.44984 5.41089C6.44984 3.49872 8.14651 1.89686 10.2896 1.89686V1.22482C7.82779 1.22482 5.77779 3.0772 5.77779 5.41089H6.44984ZM10.2896 8.92474C8.1465 8.92474 6.44984 7.32287 6.44984 5.41089H5.77779C5.77779 7.74441 7.8278 9.59678 10.2896 9.59678V8.92474ZM12.4385 8.3231C11.8051 8.71584 11.0623 8.92474 10.2896 8.92474V9.59678C11.1835 9.59678 12.0495 9.355 12.7926 8.89427L12.4385 8.3231ZM13.3235 8.3C13.0497 8.15007 12.7078 8.15665 12.4389 8.32285L12.7922 8.89452C12.8534 8.85668 12.937 8.85459 13.0007 8.88946L13.3235 8.3ZM1.59666 16.7819C1.47355 16.7819 1.42135 16.6962 1.42135 16.6465H0.749306C0.749306 17.1177 1.15485 17.454 1.59666 17.454V16.7819ZM1.77198 16.6465C1.77198 16.6962 1.71978 16.7819 1.59666 16.7819V17.454C2.03848 17.454 2.44402 17.1177 2.44402 16.6465H1.77198ZM5.81203 9.94258C3.29188 11.3859 1.77198 13.8898 1.77198 16.6465H2.44402C2.44402 14.1489 3.8187 11.8586 6.14602 10.5258L5.81203 9.94258ZM5.86505 9.77274C5.88509 9.80247 5.88827 9.83181 5.88153 9.85838C5.87462 9.88564 5.85475 9.91814 5.81215 9.94251L6.14591 10.5258C6.5441 10.298 6.68767 9.79076 6.42231 9.39709L5.86505 9.77274ZM5.60638 9.72487C5.70279 9.66978 5.82037 9.70633 5.86489 9.77249L6.42247 9.39734C6.16959 9.02149 5.65639 8.92227 5.27296 9.14136L5.60638 9.72487ZM1.42135 16.6465C1.42135 13.8206 2.97647 11.2307 5.60663 9.72472L5.27271 9.14151C2.44957 10.7579 0.749306 13.5616 0.749306 16.6465H1.42135Z" fill="#62687E"/>
</svg>
