<svg width="21" height="20" viewBox="0 0 21 20" fill="none" xmlns="http://www.w3.org/2000/svg">
<path fill-rule="evenodd" clip-rule="evenodd" d="M3.25513 1.79776C1.98717 1.79776 0.959473 2.78399 0.959473 4.00122C0.959473 5.21774 1.98717 6.20397 3.25513 6.20397H17.0323C18.3007 6.20397 19.3286 7.18997 19.3286 8.40673V4.00098C19.3286 2.78423 18.3007 1.79776 17.0323 1.79776L3.25513 1.79776Z" stroke="#62687E" stroke-width="1.6129" stroke-linecap="round" stroke-linejoin="round"/>
<path fill-rule="evenodd" clip-rule="evenodd" d="M16.1919 10.8851C15.2022 10.8851 14.4003 11.6249 14.4003 12.5373C14.4003 13.4503 15.2022 14.1896 16.1924 14.1896H19.7767V10.8851C19.7767 10.8851 16.1924 10.8851 16.1919 10.8851Z" stroke="#62687E" stroke-width="1.6129" stroke-linecap="round" stroke-linejoin="round"/>
<path fill-rule="evenodd" clip-rule="evenodd" d="M15.8841 10.7669C15.8846 10.7669 19.3286 10.7669 19.3286 10.7669V8.11136C19.3286 6.93802 18.3007 5.98721 17.0323 5.98721H3.25513C1.98717 5.98721 0.959473 5.03617 0.959473 3.86306V16.6093C0.959473 17.7822 1.98717 18.7332 3.25513 18.7332L17.0327 18.7323C18.3007 18.7323 19.3286 17.7817 19.3286 16.6089V13.9533H15.8846C14.933 13.9533 14.1625 13.2405 14.1625 12.3601C14.1623 11.4802 14.933 10.7669 15.8841 10.7669Z" stroke="#62687E" stroke-width="1.6129" stroke-linecap="round" stroke-linejoin="round"/>
</svg>
