<svg width="15" height="15" viewBox="0 0 15 15" fill="none" xmlns="http://www.w3.org/2000/svg">
<g id="Receive">
<path id="icon_Send" fill-rule="evenodd" clip-rule="evenodd" d="M9.00279 10.0972H8.34035H3.90904L12.6663 1.33997C12.8603 1.14594 12.8603 0.831365 12.6663 0.63734C12.4723 0.443315 12.1577 0.443315 11.9637 0.63734L3.20642 9.39461V4.96331V4.30087C3.20642 4.02647 2.98398 3.80403 2.70959 3.80403C2.43519 3.80403 2.21275 4.02647 2.21275 4.30087V4.96331V10.594V10.5942V11.0909H2.70889H2.71028H8.34035H9.00279C9.27718 11.0909 9.49962 10.8685 9.49962 10.5941C9.49962 10.3197 9.27718 10.0972 9.00279 10.0972Z" fill="white"/>
<path id="Path 2" d="M13.7662 13.6217C13.9815 13.6217 14.1559 13.8442 14.1559 14.1186C14.1559 14.3929 13.9815 14.6154 13.7662 14.6154H1.29674C1.08153 14.6154 0.907066 14.3929 0.907066 14.1186C0.907066 13.8442 1.08153 13.6217 1.29674 13.6217H13.7662Z" fill="white"/>
</g>
</svg>
