<svg width="15" height="16" viewBox="0 0 15 16" fill="none" xmlns="http://www.w3.org/2000/svg">
<g id="Send">
<g id="icon_Send">
<path fill-rule="evenodd" clip-rule="evenodd" d="M6.48877 2.1119H7.15121H11.5825L2.82524 10.8692C2.63122 11.0632 2.63122 11.3778 2.82524 11.5718C3.01927 11.7658 3.33384 11.7658 3.52787 11.5718L12.2851 2.81453V7.24583V7.90827C12.2851 8.18266 12.5076 8.4051 12.782 8.4051C13.0564 8.4051 13.2788 8.18266 13.2788 7.90827V7.24583V1.61516V1.61498V1.11824H12.7827H12.7813H7.15121H6.48877C6.21437 1.11824 5.99193 1.34068 5.99193 1.61507C5.99193 1.88946 6.21437 2.1119 6.48877 2.1119Z" fill="#1F2033"/>
<path d="M11.5825 2.1119L11.7593 2.28868L12.1861 1.8619H11.5825V2.1119ZM2.82524 10.8692L3.00202 11.0459V11.0459L2.82524 10.8692ZM3.52787 11.5718L3.70464 11.7486V11.7486L3.52787 11.5718ZM12.2851 2.81453H12.5351V2.21097L12.1084 2.63775L12.2851 2.81453ZM13.2788 1.11824H13.5288V0.868237H13.2788V1.11824ZM7.15121 1.8619H6.48877V2.3619H7.15121V1.8619ZM11.5825 1.8619H7.15121V2.3619H11.5825V1.8619ZM3.00202 11.0459L11.7593 2.28868L11.4057 1.93512L2.64846 10.6924L3.00202 11.0459ZM3.00202 11.395C2.90562 11.2986 2.90562 11.1423 3.00202 11.0459L2.64846 10.6924C2.35681 10.984 2.35681 11.4569 2.64846 11.7486L3.00202 11.395ZM3.35109 11.395C3.2547 11.4914 3.09841 11.4914 3.00202 11.395L2.64846 11.7486C2.94012 12.0402 3.41299 12.0402 3.70464 11.7486L3.35109 11.395ZM12.1084 2.63775L3.35109 11.395L3.70464 11.7486L12.4619 2.9913L12.1084 2.63775ZM12.5351 7.24583V2.81453H12.0351V7.24583H12.5351ZM12.5351 7.90827V7.24583H12.0351V7.90827H12.5351ZM12.782 8.1551C12.6456 8.1551 12.5351 8.04459 12.5351 7.90827H12.0351C12.0351 8.32074 12.3695 8.6551 12.782 8.6551V8.1551ZM13.0288 7.90827C13.0288 8.04459 12.9183 8.1551 12.782 8.1551V8.6551C13.1944 8.6551 13.5288 8.32074 13.5288 7.90827H13.0288ZM13.0288 7.24583V7.90827H13.5288V7.24583H13.0288ZM13.0288 1.61516V7.24583H13.5288V1.61516H13.0288ZM13.0288 1.61498V1.61516H13.5288V1.61498H13.0288ZM13.0288 1.11824V1.61498H13.5288V1.11824H13.0288ZM12.7827 1.36824H13.2788V0.868237H12.7827V1.36824ZM12.7813 1.36824H12.7827V0.868237H12.7813V1.36824ZM7.15121 1.36824H12.7813V0.868237H7.15121V1.36824ZM6.48877 1.36824H7.15121V0.868237H6.48877V1.36824ZM6.24193 1.61507C6.24193 1.47875 6.35244 1.36824 6.48877 1.36824V0.868237C6.0763 0.868237 5.74193 1.20261 5.74193 1.61507H6.24193ZM6.48877 1.8619C6.35245 1.8619 6.24193 1.75139 6.24193 1.61507H5.74193C5.74193 2.02753 6.0763 2.3619 6.48877 2.3619V1.8619Z" fill="#1F2033"/>
</g>
<path id="Path 2" d="M0.949578 14.9648C0.734368 14.9648 0.559906 14.7423 0.559906 14.4679C0.559906 14.1935 0.734368 13.9711 0.949578 13.9711H13.4191C13.6343 13.9711 13.8088 14.1935 13.8088 14.4679C13.8088 14.7423 13.6343 14.9648 13.4191 14.9648H0.949578Z" fill="#1F2033" stroke="#1F2033" stroke-width="0.5"/>
</g>
</svg>
