<svg xmlns="http://www.w3.org/2000/svg" width="90" height="26" viewBox="0 0 90 26">
  <path fill="#FAFAFA" d="M2.55528797,23.1596639 L2.55528797,14.3109244 C2.55528797,13.9831933 2.83920885,13.6918768 3.15861985,13.6918768 L4.22332317,13.6918768 C5.03959571,13.6918768 5.39449682,13.3277311 5.57194737,13 C5.6784177,12.7815126 6.10429903,11.7254902 6.38821991,11.070028 L2.55528797,11.070028 L2.55528797,3.4957983 C2.55528797,3.1316527 2.80371874,2.8767507 3.15861985,2.8767507 L5.21704626,2.8767507 C6.03331881,2.8767507 6.42371002,2.4761905 6.56567047,2.1484594 L7.41743312,0.254902 L0.780782434,0.254902 C0.354901106,0.254902 0.0354901106,0.5826331 0,0.9831933 L0,25.745098 L5.6784177,25.745098 C6.49469025,25.745098 6.88508146,25.3809524 7.06253202,25.0532213 C7.16900235,24.8347339 7.59488368,23.8151261 7.87880456,23.1596639 L2.55528797,23.1596639 Z M18.2498984,25.745098 L15.3042192,25.745098 L19.2436215,12.2352941 L15.9075511,0.254902 L17.8949973,0.254902 C18.0014676,0.254902 18.6402896,0.254902 18.8887204,1.1288515 L20.698716,7.9019608 L22.4022413,1.1288515 C22.6506721,0.254902 23.2894941,0.254902 23.3959644,0.254902 L25.3834106,0.254902 L22.1893007,12.2717087 L25.8802722,25.745098 L23.1120436,25.745098 L20.8051864,16.4957983 L18.2498984,25.745098 Z M36.5337682,0 C34.7592627,0 33.3396583,1.4565826 33.3396583,3.2408964 L33.3396583,22.7955182 C33.3751484,24.5434174 34.7947528,26 36.5337682,26 L38.4857243,26 C40.1892496,25.9271709 41.5378738,24.5434174 41.573364,22.7955182 L41.573364,3.2408964 C41.573364,1.4929972 40.1892496,0.0728291 38.4857243,0 L36.5337682,0 Z M37.2435705,23.7058824 C36.4982781,23.6694678 35.8949462,23.0504202 35.8949462,22.2857143 L35.8949462,3.7142857 C35.8949462,2.9495798 36.4982781,2.3305322 37.2435705,2.2941176 L37.6339617,2.2941176 C38.379254,2.2941176 38.9825859,2.9131653 38.9825859,3.7142857 L38.9825859,22.2857143 C38.9825859,23.0868347 38.379254,23.7058824 37.6339617,23.7058824 L37.2435705,23.7058824 Z M49.7060497,0.254902 L49.7060497,25.745098 L54.6391751,25.745098 C56.3781905,25.745098 57.7623048,24.32493 57.7977949,22.5406162 L57.7977949,3.4593838 C57.7623048,1.67507 56.3781905,0.254902 54.6391751,0.254902 L49.7060497,0.254902 Z M55.2779971,21.8123249 C55.2779971,22.7955182 54.6391751,23.1596639 53.9293729,23.1596639 L52.2613377,23.1596639 L52.2613377,2.8767507 L53.9293729,2.8767507 C54.6391751,2.8767507 55.2779971,3.2408964 55.2779971,4.1876751 L55.2779971,21.8123249 Z M74.1286962,0.254902 L71.5734083,0.254902 L71.5734083,22.2857143 C71.5734083,23.0504202 70.9700764,23.6694678 70.224784,23.6694678 L69.8343928,23.6694678 C69.0891005,23.6694678 68.5212587,23.0504202 68.5212587,22.2857143 L68.5212587,0.254902 L66.7112631,0.254902 C66.3208719,0.254902 66.0014609,0.5826331 65.9659708,0.9831933 L65.9659708,22.7591036 C65.9659708,24.5434174 67.3855752,25.8907563 69.1245906,25.8907563 L71.0765467,25.8907563 L71.0765467,25.8543417 C72.7445819,25.8179272 74.1286962,24.5070028 74.1286962,22.7591036 L74.1286962,0.254902 Z M89.2879176,5.789916 C89.6073286,5.6078431 89.9977199,5.2072829 89.9977199,4.3697479 L89.9977199,3.3865546 C89.9977199,1.6386555 88.6136055,0.0364146 86.9100802,0 L85.3130252,0 C83.5385197,0 82.1189153,1.6022409 82.1189153,3.3865546 L82.1189153,6.0084034 C82.1189153,6.0084034 82.012445,7.719888 83.2545988,10.0504202 L86.3067483,15.9131653 C86.3067483,15.9131653 87.4069418,17.8795518 87.4069418,19.372549 L87.4069418,22.2857143 C87.4069418,23.0868347 86.8036099,23.7058824 86.0583176,23.7058824 C85.3130252,23.7058824 84.7096934,23.0868347 84.7096934,22.3221289 L84.7096934,17.8795518 C84.0708714,18.1708683 83.0416582,18.6442577 82.8287175,18.7170868 C82.5093065,18.8991597 82.1189153,19.2997199 82.1189153,20.1372549 L82.1189153,22.7591036 C82.1544054,24.5070028 83.5030296,25.9271709 85.2065549,26 L86.8036099,26 C88.5781154,26 89.9977199,24.5434174 89.9977199,22.7591036 L89.9977199,19.5182073 C89.9977199,19.5182073 90.1041902,17.8067227 88.8620363,15.4761905 L85.8098868,9.5770308 C85.8098868,9.5770308 84.7096934,7.6470588 84.7096934,6.1540616 L84.7096934,3.7142857 C84.7096934,2.9131653 85.3130252,2.2941176 86.0583176,2.2941176 C86.8036099,2.2941176 87.4069418,2.9131653 87.4069418,3.7142857 L87.4069418,6.6638655 C88.0812539,6.372549 89.074977,5.8991597 89.2879176,5.789916 Z"/>
</svg>
