<svg xmlns="http://www.w3.org/2000/svg" width="324" height="324" viewBox="0 0 324 324">
  <defs>
    <linearGradient id="logo-a" x1="0%" y1="50%" y2="50%">
      <stop offset="0%" stop-color="#00BFFF"/>
      <stop offset="100%" stop-color="#6619FF"/>
    </linearGradient>
    <linearGradient id="logo-b" x1="0%" y1="50%" y2="50%">
      <stop offset="0%" stop-color="#00BFFF"/>
      <stop offset="100%" stop-color="#287DFF"/>
    </linearGradient>
    <linearGradient id="logo-c" x1="0%" y1="50%" y2="50%">
      <stop offset="0%" stop-color="#3B61FF"/>
      <stop offset="100%" stop-color="#6619FF"/>
    </linearGradient>
  </defs>
  <g fill="none" fill-rule="evenodd">
    <path fill="url(#logo-a)" d="M97.16112,2.65032 L6.75864,92.85516 C2.64231459,97.0062259 0.33897774,102.619517 0.35316,108.46548 L0.353094893,142.56 L97.16436,45.72936 L193.965913,142.56 L193.96584,108.46548 C193.980884,102.61998 191.678738,97.0067536 187.5636,92.85516 L97.15788,2.65356 L97.16112,2.65032 Z" transform="translate(64.8 181.44)"/>
    <path fill="url(#logo-b)" d="M49.69188,6.7716 C45.5416807,2.6563518 39.9293864,0.354111084 34.0848,0.36936 L0,0.369284729 L96.8112,97.2 L0,194.03064 L34.15932,194.03064 C40.0150472,194.025245 45.6289033,191.694393 49.7664,187.55064 L139.87728,97.2 L49.69188,6.7716 Z" transform="translate(0 64.8)"/>
    <path fill="url(#logo-c)" d="M45.67428,97.2 L142.48548,194.03064 L108.32292,194.03064 C102.467193,194.025245 96.8533367,191.694393 92.71584,187.55064 L2.6082,97.2 L92.79036,6.7716 C96.9405593,2.6563518 102.552854,0.354111084 108.39744,0.36936 L142.48224,0.36936 L45.67428,97.2 Z" transform="translate(181.44 64.8)"/>
    <path fill="url(#logo-a)" d="M97.16112,139.90968 L187.56684,49.70484 C191.681978,45.5532464 193.984124,39.9400197 193.96908,34.09452 L193.969153,0 L97.16112,96.83064 L0.34986257,0 L0.34992,34.09452 C0.336599007,39.940946 2.64112747,45.554302 6.75864,49.70484 L97.16112,139.90644 L97.16112,139.90968 Z" transform="translate(64.8)"/>
  </g>
</svg>
